solid Inlet
facet normal 0.000000 1.000000 0.000000
outer loop
vertex -0.100000 0.600000 -0.100000
vertex -0.100000 0.600000 0.100000
vertex 0.100000 0.600000 0.100000
endloop
endfacet
facet normal 0.000000 1.000000 0.000000
outer loop
vertex -0.100000 0.600000 -0.100000
vertex 0.100000 0.600000 0.100000
vertex 0.100000 0.600000 -0.100000
endloop
endfacet
endsolid Inlet
solid Outlet
facet normal 0.000000 -1.000000 0.000000
outer loop
vertex 0.100000 -0.600000 -0.100000
vertex 0.100000 -0.600000 0.100000
vertex -0.100000 -0.600000 0.100000
endloop
endfacet
facet normal 0.000000 -1.000000 0.000000
outer loop
vertex 0.100000 -0.600000 -0.100000
vertex -0.100000 -0.600000 0.100000
vertex -0.100000 -0.600000 -0.100000
endloop
endfacet
endsolid Outlet
solid Wall
facet normal -1.000000 0.000000 0.000000
outer loop
vertex -0.100000 -0.600000 -0.100000
vertex -0.100000 -0.600000 0.100000
vertex -0.100000 -0.400000 0.100000
endloop
endfacet
facet normal -1.000000 0.000000 0.000000
outer loop
vertex -0.100000 -0.600000 -0.100000
vertex -0.100000 -0.400000 0.100000
vertex -0.100000 -0.400000 -0.100000
endloop
endfacet
facet normal 1.000000 0.000000 0.000000
outer loop
vertex 0.100000 -0.400000 -0.100000
vertex 0.100000 -0.400000 0.100000
vertex 0.100000 -0.600000 0.100000
endloop
endfacet
facet normal 1.000000 0.000000 0.000000
outer loop
vertex 0.100000 -0.400000 -0.100000
vertex 0.100000 -0.600000 0.100000
vertex 0.100000 -0.600000 -0.100000
endloop
endfacet
facet normal 0.000000 0.000000 -1.000000
outer loop
vertex -0.100000 -0.400000 -0.100000
vertex 0.100000 -0.400000 -0.100000
vertex 0.100000 -0.600000 -0.100000
endloop
endfacet
facet normal 0.000000 0.000000 -1.000000
outer loop
vertex -0.100000 -0.400000 -0.100000
vertex 0.100000 -0.600000 -0.100000
vertex -0.100000 -0.600000 -0.100000
endloop
endfacet
facet normal 0.000000 0.000000 1.000000
outer loop
vertex 0.100000 -0.400000 0.100000
vertex -0.100000 -0.400000 0.100000
vertex -0.100000 -0.600000 0.100000
endloop
endfacet
facet normal 0.000000 0.000000 1.000000
outer loop
vertex 0.100000 -0.400000 0.100000
vertex -0.100000 -0.600000 0.100000
vertex 0.100000 -0.600000 0.100000
endloop
endfacet
facet normal -1.000000 0.000000 0.000000
outer loop
vertex -0.100000 0.400000 -0.100000
vertex -0.100000 0.400000 0.100000
vertex -0.100000 0.600000 0.100000
endloop
endfacet
facet normal -1.000000 0.000000 0.000000
outer loop
vertex -0.100000 0.400000 -0.100000
vertex -0.100000 0.600000 0.100000
vertex -0.100000 0.600000 -0.100000
endloop
endfacet
facet normal 1.000000 0.000000 0.000000
outer loop
vertex 0.100000 0.600000 -0.100000
vertex 0.100000 0.600000 0.100000
vertex 0.100000 0.400000 0.100000
endloop
endfacet
facet normal 1.000000 0.000000 0.000000
outer loop
vertex 0.100000 0.600000 -0.100000
vertex 0.100000 0.400000 0.100000
vertex 0.100000 0.400000 -0.100000
endloop
endfacet
facet normal 0.000000 0.000000 -1.000000
outer loop
vertex -0.100000 0.600000 -0.100000
vertex 0.100000 0.600000 -0.100000
vertex 0.100000 0.400000 -0.100000
endloop
endfacet
facet normal 0.000000 0.000000 -1.000000
outer loop
vertex -0.100000 0.600000 -0.100000
vertex 0.100000 0.400000 -0.100000
vertex -0.100000 0.400000 -0.100000
endloop
endfacet
facet normal 0.000000 0.000000 1.000000
outer loop
vertex 0.100000 0.600000 0.100000
vertex -0.100000 0.600000 0.100000
vertex -0.100000 0.400000 0.100000
endloop
endfacet
facet normal 0.000000 0.000000 1.000000
outer loop
vertex 0.100000 0.600000 0.100000
vertex -0.100000 0.400000 0.100000
vertex 0.100000 0.400000 0.100000
endloop
endfacet
facet normal -1.000000 0.000000 0.000000
outer loop
vertex -0.400000 -0.400000 -0.400000
vertex -0.400000 -0.400000 0.400000
vertex -0.400000 0.400000 0.400000
endloop
endfacet
facet normal -1.000000 0.000000 0.000000
outer loop
vertex -0.400000 -0.400000 -0.400000
vertex -0.400000 0.400000 0.400000
vertex -0.400000 0.400000 -0.400000
endloop
endfacet
facet normal 1.000000 0.000000 0.000000
outer loop
vertex 0.400000 0.400000 -0.400000
vertex 0.400000 0.400000 0.400000
vertex 0.400000 -0.400000 0.400000
endloop
endfacet
facet normal 1.000000 0.000000 0.000000
outer loop
vertex 0.400000 0.400000 -0.400000
vertex 0.400000 -0.400000 0.400000
vertex 0.400000 -0.400000 -0.400000
endloop
endfacet
facet normal 0.000000 0.000000 -1.000000
outer loop
vertex -0.400000 0.400000 -0.400000
vertex 0.400000 0.400000 -0.400000
vertex 0.400000 -0.400000 -0.400000
endloop
endfacet
facet normal 0.000000 0.000000 -1.000000
outer loop
vertex -0.400000 0.400000 -0.400000
vertex 0.400000 -0.400000 -0.400000
vertex -0.400000 -0.400000 -0.400000
endloop
endfacet
facet normal 0.000000 0.000000 1.000000
outer loop
vertex 0.400000 0.400000 0.400000
vertex -0.400000 0.400000 0.400000
vertex -0.400000 -0.400000 0.400000
endloop
endfacet
facet normal 0.000000 0.000000 1.000000
outer loop
vertex 0.400000 0.400000 0.400000
vertex -0.400000 -0.400000 0.400000
vertex 0.400000 -0.400000 0.400000
endloop
endfacet
facet normal 0.000000 1.000000 0.000000
outer loop
vertex 0.100000 0.400000 0.100000
vertex 0.400000 0.400000 0.400000
vertex 0.400000 0.400000 -0.400000
endloop
endfacet
facet normal 0.000000 1.000000 0.000000
outer loop
vertex 0.100000 0.400000 0.100000
vertex 0.400000 0.400000 -0.400000
vertex 0.100000 0.400000 -0.100000
endloop
endfacet
facet normal 0.000000 1.000000 0.000000
outer loop
vertex 0.400000 0.400000 0.400000
vertex 0.100000 0.400000 0.100000
vertex -0.100000 0.400000 0.100000
endloop
endfacet
facet normal 0.000000 1.000000 -0.000000
outer loop
vertex -0.100000 0.400000 -0.100000
vertex 0.100000 0.400000 -0.100000
vertex 0.400000 0.400000 -0.400000
endloop
endfacet
facet normal 0.000000 1.000000 -0.000000
outer loop
vertex -0.400000 0.400000 0.400000
vertex 0.400000 0.400000 0.400000
vertex -0.100000 0.400000 0.100000
endloop
endfacet
facet normal 0.000000 1.000000 0.000000
outer loop
vertex -0.100000 0.400000 -0.100000
vertex 0.400000 0.400000 -0.400000
vertex -0.400000 0.400000 -0.400000
endloop
endfacet
facet normal 0.000000 1.000000 0.000000
outer loop
vertex -0.400000 0.400000 0.400000
vertex -0.100000 0.400000 0.100000
vertex -0.100000 0.400000 -0.100000
endloop
endfacet
facet normal 0.000000 1.000000 0.000000
outer loop
vertex -0.100000 0.400000 -0.100000
vertex -0.400000 0.400000 -0.400000
vertex -0.400000 0.400000 0.400000
endloop
endfacet
facet normal 0.000000 -1.000000 0.000000
outer loop
vertex -0.400000 -0.400000 0.400000
vertex -0.400000 -0.400000 -0.400000
vertex -0.100000 -0.400000 -0.100000
endloop
endfacet
facet normal 0.000000 -1.000000 0.000000
outer loop
vertex -0.400000 -0.400000 0.400000
vertex -0.100000 -0.400000 -0.100000
vertex -0.100000 -0.400000 0.100000
endloop
endfacet
facet normal 0.000000 -1.000000 -0.000000
outer loop
vertex 0.400000 -0.400000 0.400000
vertex -0.400000 -0.400000 0.400000
vertex -0.100000 -0.400000 0.100000
endloop
endfacet
facet normal 0.000000 -1.000000 0.000000
outer loop
vertex 0.400000 -0.400000 0.400000
vertex -0.100000 -0.400000 0.100000
vertex 0.100000 -0.400000 0.100000
endloop
endfacet
facet normal 0.000000 -1.000000 0.000000
outer loop
vertex -0.100000 -0.400000 -0.100000
vertex -0.400000 -0.400000 -0.400000
vertex 0.400000 -0.400000 -0.400000
endloop
endfacet
facet normal 0.000000 -1.000000 0.000000
outer loop
vertex 0.400000 -0.400000 0.400000
vertex 0.100000 -0.400000 0.100000
vertex 0.100000 -0.400000 -0.100000
endloop
endfacet
facet normal 0.000000 -1.000000 -0.000000
outer loop
vertex 0.100000 -0.400000 -0.100000
vertex -0.100000 -0.400000 -0.100000
vertex 0.400000 -0.400000 -0.400000
endloop
endfacet
facet normal 0.000000 -1.000000 0.000000
outer loop
vertex 0.100000 -0.400000 -0.100000
vertex 0.400000 -0.400000 -0.400000
vertex 0.400000 -0.400000 0.400000
endloop
endfacet
endsolid Wall
